# xmcd
#
# Track frame offsets:
#	172
#	9135
#	30427
#	46190
#	58830
#	85427
#	97590
#	113855
#	132480
#	147632
#	160802
#	202665
#
# Disc length: 3145 seconds
#
# Revision: 0
# Processed by: cddbd v1.4PL0 Copyright (c) Steve Scherf et al.
# Submitted via: dBpowerAMP V4.0
#
DISCID=920c470c
DTITLE=Zop hopop - Western
DYEAR=2001
DGENRE=
TTITLE0=Intheme from nyc
TTITLE1=Western
TTITLE2=What I ought to do
TTITLE3=Right and wrong
TTITLE4=Coumba
TTITLE5=Ain't no good
TTITLE6=Dwarf
TTITLE7=Goggy
TTITLE8=The teller
TTITLE9=Burned up with desire
TTITLE10=Here is a place
TTITLE11=A song from Quedewic's songs - a promise
EXTD=
EXTT0=
EXTT1=
EXTT2=
EXTT3=
EXTT4=
EXTT5=
EXTT6=
EXTT7=
EXTT8=
EXTT9=
EXTT10=
EXTT11=
PLAYORDER=
